<svg width="48" height="48" viewBox="0 0 48 48" fill="none" xmlns="http://www.w3.org/2000/svg">
<path fill-rule="evenodd" clip-rule="evenodd" d="M48 24C48 37.2548 37.2548 48 24 48C10.7452 48 0 37.2548 0 24C0 10.7452 10.7452 0 24 0C37.2548 0 48 10.7452 48 24ZM45.3333 24C45.3333 35.7821 35.7821 45.3333 24 45.3333C12.2179 45.3333 2.66667 35.7821 2.66667 24C2.66667 12.2179 12.2179 2.66667 24 2.66667C35.7821 2.66667 45.3333 12.2179 45.3333 24Z" fill="#EBE4FF"/>
<mask id="mask0_7023_11690" style="mask-type:alpha" maskUnits="userSpaceOnUse" x="0" y="0" width="48" height="48">
<path fill-rule="evenodd" clip-rule="evenodd" d="M48 24C48 37.2548 37.2548 48 24 48C10.7452 48 0 37.2548 0 24C0 10.7452 10.7452 0 24 0C37.2548 0 48 10.7452 48 24ZM45.3333 24C45.3333 35.7821 35.7821 45.3333 24 45.3333C12.2179 45.3333 2.66667 35.7821 2.66667 24C2.66667 12.2179 12.2179 2.66667 24 2.66667C35.7821 2.66667 45.3333 12.2179 45.3333 24Z" fill="white"/>
</mask>
<g mask="url(#mask0_7023_11690)">
<path d="M24 0H48V48H0.333333L0 24H24V0Z" fill="#673DE6"/>
</g>
</svg>
