<svg width="150" height="30" viewBox="0 0 150 30" fill="none" xmlns="http://www.w3.org/2000/svg">
<path d="M116.794 12.1443C117.377 11.4191 118.324 11.0564 119.634 11.0564C120.224 11.0564 120.768 11.1311 121.267 11.281C121.766 11.4311 122.208 11.6077 122.593 11.8114L123.404 9.56366C123.308 9.5038 123.149 9.41956 122.926 9.31168C122.704 9.20354 122.421 9.09867 122.078 8.99708C121.735 8.89498 121.327 8.8052 120.852 8.72699C120.377 8.64928 119.845 8.6098 119.256 8.6098C118.39 8.6098 117.575 8.75415 116.812 9.04209C116.048 9.32978 115.384 9.75226 114.819 10.3098C114.253 10.8671 113.809 11.5481 113.484 12.351C113.159 13.1545 112.997 14.0777 112.997 15.1211C112.997 16.1521 113.144 17.0695 113.439 17.8722C113.734 18.6754 114.152 19.3532 114.692 19.9044C115.233 20.4561 115.886 20.8754 116.65 21.1636C117.413 21.451 118.264 21.5951 119.201 21.5951C120.296 21.5951 121.216 21.5196 121.961 21.37C122.707 21.2204 123.248 21.0798 123.585 20.9478V14.7793H120.771V19.1133C120.603 19.1495 120.407 19.1734 120.185 19.1852C119.962 19.197 119.694 19.203 119.382 19.203C118.804 19.203 118.3 19.1042 117.867 18.9065C117.434 18.7086 117.074 18.4297 116.785 18.0699C116.496 17.71 116.28 17.2815 116.135 16.7843C115.991 16.2869 115.919 15.7319 115.919 15.1211C115.919 13.8617 116.211 12.8698 116.794 12.1443Z" fill="#1D1E20"/>
<path d="M72.0958 19.1221C71.8373 19.1885 71.5096 19.2212 71.1129 19.2212C70.3195 19.2212 69.6488 19.1402 69.102 18.978C68.5545 18.8166 68.0944 18.634 67.7222 18.4298L66.9282 20.6597C67.0967 20.756 67.304 20.8576 67.5504 20.9657C67.7971 21.0736 68.0919 21.1754 68.4344 21.2712C68.7772 21.3671 69.1709 21.4478 69.6158 21.5142C70.0607 21.5801 70.5598 21.6133 71.1129 21.6133C72.7601 21.6133 73.9927 21.2924 74.8103 20.6506C75.628 20.0093 76.0371 19.107 76.0371 17.9439C76.0371 17.3449 75.9587 16.8357 75.8028 16.4157C75.6462 15.996 75.4086 15.6301 75.0903 15.3185C74.7715 15.0069 74.3715 14.7341 73.8908 14.5002C73.4096 14.2663 72.8444 14.0297 72.1954 13.7895C71.8824 13.6817 71.5967 13.577 71.3386 13.4749C71.0799 13.3733 70.8514 13.2592 70.6529 13.1334C70.4546 13.0074 70.301 12.8666 70.1931 12.7107C70.0849 12.5553 70.0304 12.3632 70.0304 12.1351C70.0304 11.7518 70.178 11.4669 70.4726 11.2811C70.7671 11.0955 71.2511 11.0019 71.9248 11.0019C72.5258 11.0019 73.0398 11.0713 73.4668 11.2089C73.8933 11.3469 74.2812 11.5059 74.6303 11.6857L75.4416 9.47369C75.0449 9.25792 74.5397 9.05976 73.9268 8.87995C73.3135 8.7004 72.5858 8.60986 71.7442 8.60986C71.0345 8.60986 70.3974 8.69738 69.8322 8.8709C69.267 9.04517 68.7863 9.29338 68.3895 9.61728C67.9926 9.94144 67.6861 10.3337 67.4695 10.7955C67.2531 11.2569 67.1449 11.7755 67.1449 12.3511C67.1449 12.9267 67.247 13.4151 67.4516 13.8165C67.6559 14.2186 67.9207 14.5603 68.245 14.842C68.5696 15.1239 68.9363 15.3578 69.3452 15.5433C69.754 15.7289 70.1628 15.8942 70.5719 16.0375C71.5096 16.3498 72.1709 16.6403 72.5558 16.9104C72.9404 17.1797 73.1331 17.519 73.1331 17.9263C73.1331 18.1182 73.1031 18.2922 73.0428 18.4479C72.9826 18.6038 72.8741 18.7386 72.718 18.852C72.5619 18.9667 72.3543 19.0565 72.0958 19.1221Z" fill="#1D1E20"/>
<path fill-rule="evenodd" clip-rule="evenodd" d="M64.0374 15.1209C64.0374 16.1877 63.8778 17.1262 63.5597 17.935C63.2407 18.7445 62.8046 19.4219 62.2518 19.9671C61.6987 20.5131 61.0401 20.9235 60.2767 21.1991C59.5133 21.4753 58.6923 21.6131 57.8149 21.6131C56.9609 21.6131 56.1556 21.4753 55.3979 21.1991C54.6403 20.9235 53.9787 20.5131 53.4138 19.9671C52.8483 19.4219 52.4039 18.7445 52.0791 17.935C51.7545 17.1262 51.5918 16.1877 51.5918 15.1209C51.5918 14.0537 51.7603 13.1154 52.097 12.3064C52.4334 11.4969 52.8877 10.8164 53.4589 10.2649C54.0297 9.71341 54.6912 9.29998 55.4431 9.02411C56.1942 8.74799 56.9851 8.60992 57.8149 8.60992C58.6684 8.60992 59.4739 8.74799 60.2318 9.02411C60.9892 9.29998 61.6505 9.71341 62.2157 10.2649C62.7807 10.8164 63.2258 11.4969 63.5504 12.3064C63.8753 13.1154 64.0374 14.0537 64.0374 15.1209ZM54.4953 15.1209C54.4953 15.732 54.5703 16.2835 54.7206 16.7752C54.8709 17.267 55.0875 17.6895 55.3703 18.0431C55.6522 18.3972 55.9983 18.6695 56.4074 18.8612C56.8159 19.0535 57.2848 19.1496 57.8142 19.1496C58.331 19.1496 58.7971 19.0535 59.2122 18.8612C59.6266 18.6695 59.9757 18.3972 60.2579 18.0431C60.5404 17.6895 60.7573 17.267 60.9076 16.7752C61.0579 16.2835 61.1331 15.732 61.1331 15.1209C61.1331 14.5091 61.0579 13.9546 60.9076 13.4569C60.7573 12.9595 60.5404 12.5342 60.2579 12.1802C59.9757 11.8266 59.6266 11.5535 59.2122 11.3621C58.7971 11.1702 58.331 11.0744 57.8142 11.0744C57.2848 11.0744 56.8159 11.1732 56.4074 11.3709C55.9983 11.5688 55.6522 11.8447 55.3703 12.1985C55.0875 12.5521 54.8709 12.9776 54.7206 13.475C54.5703 13.9729 54.4953 14.5214 54.4953 15.1209Z" fill="#1D1E20"/>
<path d="M45.1119 8.89819H47.9258V21.3612H45.1119V16.0739H40.3862V21.3612H37.5723V8.89819H40.3862V13.6637H45.1119V8.89819Z" fill="#1D1E20"/>
<path d="M88.4331 8.89832V11.2904H84.6633V21.3613H81.8497V11.2904H78.0796V8.89832H88.4331Z" fill="#1D1E20"/>
<path d="M94.372 21.3615H91.5581V8.89832H94.372V21.3615Z" fill="#1D1E20"/>
<path d="M106.968 21.3613C106.162 19.9347 105.291 18.5261 104.352 17.135C103.414 15.744 102.416 14.4313 101.358 13.1963V21.3613H98.5806V8.89832H100.871C101.268 9.29364 101.707 9.77924 102.188 10.3549C102.669 10.9305 103.158 11.5451 103.658 12.1985C104.157 12.8518 104.653 13.5293 105.146 14.2304C105.639 14.9318 106.102 15.606 106.535 16.2535V8.89832H109.331V21.3613H106.968Z" fill="#1D1E20"/>
<path d="M127.522 21.3613V8.89832H135.963V11.2542H130.336V13.6998H135.332V16.0021H130.336V19.0054H136.378V21.3613H127.522Z" fill="#1D1E20"/>
<path fill-rule="evenodd" clip-rule="evenodd" d="M147.746 9.75226C146.748 9.0866 145.311 8.75415 143.435 8.75415C142.918 8.75415 142.332 8.77804 141.677 8.82632C141.021 8.87385 140.387 8.95835 139.774 9.07755V21.3612H142.587V16.8107H143.977C144.217 17.0989 144.459 17.4196 144.701 17.7736C144.942 18.1272 145.187 18.5014 145.434 18.8972C145.682 19.2931 145.923 19.701 146.158 20.1204C146.393 20.5401 146.626 20.9536 146.855 21.3612H150C149.784 20.9058 149.55 20.4413 149.297 19.9673C149.045 19.494 148.783 19.0386 148.513 18.601C148.242 18.1634 147.968 17.7437 147.692 17.3419C147.415 16.9402 147.151 16.5836 146.898 16.2716C147.656 15.9602 148.236 15.5312 148.639 14.986C149.042 14.4406 149.243 13.7296 149.243 12.8547C149.243 11.4517 148.744 10.4177 147.746 9.75226ZM143.047 11.1641C143.209 11.1522 143.392 11.1462 143.597 11.1462C144.498 11.1462 145.18 11.2752 145.643 11.5325C146.106 11.791 146.338 12.225 146.338 12.8366C146.338 13.4724 146.109 13.9223 145.652 14.1856C145.196 14.4496 144.438 14.5809 143.38 14.5809H142.587V11.2C142.731 11.1885 142.885 11.1764 143.047 11.1641Z" fill="#1D1E20"/>
<path fill-rule="evenodd" clip-rule="evenodd" d="M0.000249566 14.046V0.000497794L7.08916 3.78046V10.1086L16.4735 10.1132L23.6774 14.046H0.000249566ZM18.3925 8.95058V0L25.6725 3.6859V13.1797L18.3925 8.95058ZM18.3924 26.1177V19.8441L8.93577 19.8375C8.9446 19.8793 1.6123 15.8418 1.6123 15.8418L25.6725 15.9547V30L18.3924 26.1177ZM0 26.1177L0.000252212 16.9393L7.08916 21.0683V29.8033L0 26.1177Z" fill="#1D1E20"/>
</svg>
