<svg width="20" height="20" viewBox="0 0 20 20" fill="none" xmlns="http://www.w3.org/2000/svg">
<g clip-path="url(#clip0_8754_23615)">
<path d="M19.5834 5.42252C19.4701 5.01855 19.2495 4.65281 18.945 4.36419C18.6319 4.06669 18.2482 3.85389 17.83 3.74586C16.265 3.33336 9.99503 3.33336 9.99503 3.33336C7.38113 3.30362 4.76788 3.43442 2.17003 3.72502C1.75185 3.84103 1.36883 4.05859 1.05503 4.35836C0.746693 4.65502 0.523359 5.02086 0.406693 5.42169C0.126437 6.93148 -0.00973061 8.46448 2.6038e-05 10C-0.00997396 11.5342 0.125859 13.0667 0.406693 14.5784C0.520859 14.9775 0.743359 15.3417 1.05253 15.6359C1.36169 15.93 1.74669 16.1425 2.17003 16.255C3.75586 16.6667 9.99503 16.6667 9.99503 16.6667C12.6122 16.6965 15.2288 16.5657 17.83 16.275C18.2482 16.167 18.6319 15.9542 18.945 15.6567C19.2534 15.3625 19.4725 14.9967 19.5825 14.5984C19.8701 13.0892 20.0099 11.5555 20 10.0192C20.0217 8.47636 19.882 6.93549 19.5834 5.42169V5.42252ZM8.00169 12.8534V7.14752L13.2184 10.0009L8.00169 12.8534Z" fill="#673DE6"/>
</g>
<defs>
<clipPath id="clip0_8754_23615">
<rect width="20" height="20" fill="white"/>
</clipPath>
</defs>
</svg>
